<svg width="1345" height="846" viewBox="0 0 1345 846" fill="none" xmlns="http://www.w3.org/2000/svg">
<g clip-path="url(#clip0_74_35)">
<path d="M880.103 558.983C579.224 119.655 144.501 157.497 144.501 157.497L138.914 174.381L873.814 576.13L880.103 558.983Z" fill="#343A40"/>
<path d="M872.688 581.523C569.713 150.706 136.3 177.24 136.3 177.24L113.855 237.632L852.055 635.792L872.688 581.523Z" fill="white"/>
<path d="M177.819 172.148L143.572 259.486L176.735 256.717L210.072 171.575" fill="#343A40"/>
<path d="M321.827 188.172L295.978 259.966L327.516 265.368L353.932 194.398" fill="#343A40"/>
<path d="M463.766 229.785L437.48 302.881L468.07 315.003L494.194 242.359" fill="#343A40"/>
<path d="M596.809 295.422L571.933 364.702L601.559 385.277L626.422 316.032" fill="#343A40"/>
<path d="M725.035 393.792L699.526 464.587L721.72 489.334L748.677 419.248" fill="#343A40"/>
<g filter="url(#filter0_d_74_35)">
<path d="M849.482 644.686C547.177 199.25 109.284 243.52 109.284 243.52L73.6036 341.685L89.3093 350.197C89.3093 350.197 169.19 206.115 137.597 376.329L149.662 382.906L210.632 398.717L223.226 404.241C223.226 404.241 356.406 152.554 284.95 428.589L360.284 459.013C360.284 459.013 498.888 188.153 421.051 489.345L441.155 497.64L477.071 509.301L494.352 518.667C494.352 518.667 633.299 263.602 562.577 568.65L628.938 613.72C628.938 613.72 748.941 397.852 682.821 666.336L745.358 705.757L756.603 711.812C756.603 711.812 833.525 570.146 801.756 736.323L813.467 742.67L849.482 644.686Z" fill="#212529"/>
</g>
<path d="M294.415 436.238L385.429 179.038L452.206 193.286L351.852 461.794L294.415 436.238Z" fill="#495057"/>
<path d="M424.491 498.667L526.991 217.191L586.879 249.617L482.889 528.927L424.491 498.667Z" fill="#495057"/>
<path d="M626.094 595.557L714.508 352.53L661.134 301.595L565.214 565.307L626.094 595.557Z" fill="#495057"/>
<path d="M148.691 395.681L240.4 143.066L306.367 159.426L214.201 412.688L148.691 395.681Z" fill="#495057"/>
<path d="M741.665 707.452L833.374 454.837L779.195 406.004L681.593 674.856L741.665 707.452Z" fill="#495057"/>
<path d="M831.321 520.282L809.101 582.106L828.209 607.952L850.039 547.21" fill="#343A40"/>
<path d="M48.7606 389.407C66.1547 390.517 455.721 416.6 788.108 786.872C796.55 781.221 798.285 761.544 802.349 744.986C788.218 728.739 817.473 760.838 802.349 744.986C554.833 485.474 339.43 401.08 67.649 351.306" fill="#343A40"/>
<mask id="mask0_74_35" style="mask-type:luminance" maskUnits="userSpaceOnUse" x="-16" y="0" width="1361" height="846">
<path d="M1244.71 670.796C1198.33 628.953 1149.24 578.886 1030.65 561.804C970.338 553.115 898.33 557.227 887.946 558.832C828.412 568.037 799.501 574.467 717.537 604.41C667.741 622.602 598.814 646.055 525.303 658.906C457.308 670.796 433.711 672.223 391.831 653.952C290.576 609.781 243.248 514.244 231.025 486.917C209.938 439.763 208.83 422.096 196.23 349.052C182.883 271.658 174.774 246.738 156.465 205.321C137.855 163.211 117.439 135.428 101.792 114.392C78.6903 83.3393 41.0074 39.6037 -15.0092 0C-14.1781 281.596 -13.624 563.588 -12.793 845.184C412.162 847.136 919.644 839.268 1344.6 841.22C1332.85 782.761 1277.44 705.476 1244.7 670.796H1244.71Z" fill="white"/>
</mask>
<g mask="url(#mask0_74_35)">
<path d="M-15.303 256.627H908.093V842.211H-15.303V256.627Z" fill="#09C3A9"/>
<g style="mix-blend-mode:screen" opacity="0.7">
<path d="M-15.303 256.627H908.093V842.211H-15.303V256.627Z" fill="black"/>
</g>
<g filter="url(#filter1_d_74_35)">
<path d="M370.844 841.22C297.912 818.55 265.661 773.16 249.745 742.612C233.107 710.678 235.768 688.691 212.33 669.092C184.99 646.243 141.59 642.894 108.406 658.847C98.6688 663.534 98.3414 665.773 91.0718 668.825C57.7456 682.805 15.8319 656.112 -15.3033 626.199C-16.7892 348.031 -13.8175 186.01 -15.3033 -92.1578C411.037 -92.3362 822.569 -55.3185 1248.91 -55.4968C1249.32 294.982 1262.57 491.138 1262.98 841.617C965.603 838.743 668.211 844.084 370.844 841.21V841.22Z" fill="#0D8C89"/>
</g>
<g filter="url(#filter2_d_74_35)">
<path d="M1214.49 841.22C1194.73 772.674 1146.88 741.265 1132.47 734.299C1117.96 727.274 1113.67 726.897 1068.84 717.435C1035.69 710.44 1004.91 707.239 964.68 707.17C870.023 707.011 772.202 734.616 623.149 756.603C523.23 771.346 489.45 770.405 458.197 766.283C410.869 760.031 354.131 752.53 302.026 709.072C219.844 640.516 209.72 521.527 198.194 491.395C188.49 471.321 175.538 455.26 154.837 461.195C131.676 467.833 120.05 501.264 117.129 517.989C111.941 547.695 114.803 573.347 105.435 594.908C102.531 601.596 90.9462 608.255 79.3785 604.886C60.684 599.436 38.9254 567.997 39.0513 487.709C41.0659 435.304 47.9495 350.568 45.0869 330.483C42.2244 310.409 40.3021 296.498 27.811 273.57C13.129 246.619 -6.02722 232.618 -15.5214 226.634C-14.3209 73.8567 -16.512 60.6389 -15.3031 -92.1382C411.986 -84.5087 893.813 -89.8593 1321.1 -82.2298C1322.48 267.922 1344.07 491.058 1345.45 841.22H1214.49Z" fill="#075764"/>
</g>
<g filter="url(#filter3_d_74_35)">
<path d="M1330.34 789.697C1258.14 724.302 1081.03 620.432 991.332 613.546C972.252 612.079 953.717 616.806 953.717 616.806C890.078 624.663 844.21 642.3 814.762 653.298C720.778 688.404 673.785 705.961 649.735 709.806C625.332 713.71 533.949 728.344 453.018 675.919C402.659 643.301 394.5 609.434 274.022 411.237C258.123 385.079 243.29 344.89 207.638 304.038C173.456 264.87 146.417 251.068 115.164 226.892C79.0428 198.96 31.3115 152.569 -14.8079 72.7174C-15.6136 -28.7641 -14.4888 31.1221 -15.2947 -70.3594C416.821 -69.4082 912.483 -71.2908 1344.61 -70.3495C1343.93 76.7997 1349.67 670.251 1344.61 841.22C1344.61 841.22 1330.34 789.479 1330.34 789.697Z" fill="#003542"/>
</g>
<g filter="url(#filter4_d_74_35)">
<path d="M106.156 430.954C102.538 436.295 91.2814 442.438 82.9961 437.593C77.8586 434.581 74.1986 428.903 71.4536 417.499C64.2763 387.714 68.6582 353.927 74.4756 333.872C80.847 317.662 96.0411 309.488 109.229 313.877C124.675 319.02 129.712 338.836 129.426 350.716C129.199 359.911 125.758 366.441 123.609 370.781C111.999 394.175 111.949 424.286 106.148 430.964L106.156 430.954Z" fill="white"/>
</g>
<g filter="url(#filter5_d_74_35)">
<path d="M1153.27 684.153C1151.3 679.446 1114.04 593.323 1057.93 586.922C1031.84 583.949 1011.62 596.86 1011.62 596.86C1003.87 601.804 988.991 611.297 988.428 626.922C988.017 638.188 995.194 648.612 1002.86 653.714C1015.85 662.374 1029.62 652.208 1040.47 653.794C1086.76 660.581 1075.17 673.937 1118.51 714.185C1127.18 720.893 1136.82 720.408 1144.55 714.245C1152.78 707.675 1156.38 695.409 1153.28 684.153H1153.27Z" fill="white"/>
</g>
<g filter="url(#filter6_d_74_35)">
<path d="M809.037 687.641C792.811 687.641 779.656 672.114 779.656 652.961C779.656 633.808 792.811 618.282 809.037 618.282C825.264 618.282 838.418 633.808 838.418 652.961C838.418 672.114 825.264 687.641 809.037 687.641Z" fill="white"/>
</g>
</g>
</g>
<defs>
<filter id="filter0_d_74_35" x="64.6035" y="223.303" width="815.879" height="540.367" filterUnits="userSpaceOnUse" color-interpolation-filters="sRGB">
<feFlood flood-opacity="0" result="BackgroundImageFix"/>
<feColorMatrix in="SourceAlpha" type="matrix" values="0 0 0 0 0 0 0 0 0 0 0 0 0 0 0 0 0 0 127 0" result="hardAlpha"/>
<feOffset dx="11" dy="1"/>
<feGaussianBlur stdDeviation="10"/>
<feColorMatrix type="matrix" values="0 0 0 0 0 0 0 0 0 0 0 0 0 0 0 0 0 0 0.7 0"/>
<feBlend mode="normal" in2="BackgroundImageFix" result="effect1_dropShadow_74_35"/>
<feBlend mode="normal" in="SourceGraphic" in2="effect1_dropShadow_74_35" result="shape"/>
</filter>
<filter id="filter1_d_74_35" x="-24.7324" y="-111.158" width="1318.71" height="974.248" filterUnits="userSpaceOnUse" color-interpolation-filters="sRGB">
<feFlood flood-opacity="0" result="BackgroundImageFix"/>
<feColorMatrix in="SourceAlpha" type="matrix" values="0 0 0 0 0 0 0 0 0 0 0 0 0 0 0 0 0 0 127 0" result="hardAlpha"/>
<feOffset dx="11" dy="1"/>
<feGaussianBlur stdDeviation="10"/>
<feColorMatrix type="matrix" values="0 0 0 0 0 0 0 0 0 0 0 0 0 0 0 0 0 0 0.7 0"/>
<feBlend mode="normal" in2="BackgroundImageFix" result="effect1_dropShadow_74_35"/>
<feBlend mode="normal" in="SourceGraphic" in2="effect1_dropShadow_74_35" result="shape"/>
</filter>
<filter id="filter2_d_74_35" x="-24.6807" y="-111.138" width="1401.13" height="973.358" filterUnits="userSpaceOnUse" color-interpolation-filters="sRGB">
<feFlood flood-opacity="0" result="BackgroundImageFix"/>
<feColorMatrix in="SourceAlpha" type="matrix" values="0 0 0 0 0 0 0 0 0 0 0 0 0 0 0 0 0 0 127 0" result="hardAlpha"/>
<feOffset dx="11" dy="1"/>
<feGaussianBlur stdDeviation="10"/>
<feColorMatrix type="matrix" values="0 0 0 0 0 0 0 0 0 0 0 0 0 0 0 0 0 0 0.7 0"/>
<feBlend mode="normal" in2="BackgroundImageFix" result="effect1_dropShadow_74_35"/>
<feBlend mode="normal" in="SourceGraphic" in2="effect1_dropShadow_74_35" result="shape"/>
</filter>
<filter id="filter3_d_74_35" x="-24.2949" y="-89.6213" width="1402.01" height="951.842" filterUnits="userSpaceOnUse" color-interpolation-filters="sRGB">
<feFlood flood-opacity="0" result="BackgroundImageFix"/>
<feColorMatrix in="SourceAlpha" type="matrix" values="0 0 0 0 0 0 0 0 0 0 0 0 0 0 0 0 0 0 127 0" result="hardAlpha"/>
<feOffset dx="11" dy="1"/>
<feGaussianBlur stdDeviation="10"/>
<feColorMatrix type="matrix" values="0 0 0 0 0 0 0 0 0 0 0 0 0 0 0 0 0 0 0.7 0"/>
<feBlend mode="normal" in2="BackgroundImageFix" result="effect1_dropShadow_74_35"/>
<feBlend mode="normal" in="SourceGraphic" in2="effect1_dropShadow_74_35" result="shape"/>
</filter>
<filter id="filter4_d_74_35" x="58.7217" y="293.702" width="101.716" height="166.65" filterUnits="userSpaceOnUse" color-interpolation-filters="sRGB">
<feFlood flood-opacity="0" result="BackgroundImageFix"/>
<feColorMatrix in="SourceAlpha" type="matrix" values="0 0 0 0 0 0 0 0 0 0 0 0 0 0 0 0 0 0 127 0" result="hardAlpha"/>
<feOffset dx="11" dy="1"/>
<feGaussianBlur stdDeviation="10"/>
<feColorMatrix type="matrix" values="0 0 0 0 0 0 0 0 0 0 0 0 0 0 0 0 0 0 0.7 0"/>
<feBlend mode="normal" in2="BackgroundImageFix" result="effect1_dropShadow_74_35"/>
<feBlend mode="normal" in="SourceGraphic" in2="effect1_dropShadow_74_35" result="shape"/>
</filter>
<filter id="filter5_d_74_35" x="979.411" y="567.478" width="205.97" height="172.565" filterUnits="userSpaceOnUse" color-interpolation-filters="sRGB">
<feFlood flood-opacity="0" result="BackgroundImageFix"/>
<feColorMatrix in="SourceAlpha" type="matrix" values="0 0 0 0 0 0 0 0 0 0 0 0 0 0 0 0 0 0 127 0" result="hardAlpha"/>
<feOffset dx="11" dy="1"/>
<feGaussianBlur stdDeviation="10"/>
<feColorMatrix type="matrix" values="0 0 0 0 0 0 0 0 0 0 0 0 0 0 0 0 0 0 0.7 0"/>
<feBlend mode="normal" in2="BackgroundImageFix" result="effect1_dropShadow_74_35"/>
<feBlend mode="normal" in="SourceGraphic" in2="effect1_dropShadow_74_35" result="shape"/>
</filter>
<filter id="filter6_d_74_35" x="770.656" y="599.282" width="98.7617" height="109.359" filterUnits="userSpaceOnUse" color-interpolation-filters="sRGB">
<feFlood flood-opacity="0" result="BackgroundImageFix"/>
<feColorMatrix in="SourceAlpha" type="matrix" values="0 0 0 0 0 0 0 0 0 0 0 0 0 0 0 0 0 0 127 0" result="hardAlpha"/>
<feOffset dx="11" dy="1"/>
<feGaussianBlur stdDeviation="10"/>
<feColorMatrix type="matrix" values="0 0 0 0 0 0 0 0 0 0 0 0 0 0 0 0 0 0 0.7 0"/>
<feBlend mode="normal" in2="BackgroundImageFix" result="effect1_dropShadow_74_35"/>
<feBlend mode="normal" in="SourceGraphic" in2="effect1_dropShadow_74_35" result="shape"/>
</filter>
<clipPath id="clip0_74_35">
<rect width="1359.61" height="845.501" fill="white" transform="matrix(-1 0 0 1 1344.61 0)"/>
</clipPath>
</defs>
</svg>
